<mxfile host="app.diagrams.net" modified="2023-05-24T16:33:13.151Z" agent="Mozilla/5.0 (X11; Linux x86_64) AppleWebKit/537.36 (KHTML, like Gecko) Chrome/113.0.0.0 Safari/537.36" etag="Byvo0nIuX6zuoJycrlVr" version="21.3.3" type="google" pages="2">
  <diagram id="D8fa6SzRuzp65krqOeX7" name="E-R">
    <mxGraphModel grid="1" page="1" gridSize="10" guides="1" tooltips="1" connect="1" arrows="1" fold="1" pageScale="1" pageWidth="850" pageHeight="1100" math="0" shadow="0">
      <root>
        <mxCell id="0" />
        <mxCell id="1" parent="0" />
        <mxCell id="Kqt-vZ9Plk5DfBnfXzL9-3" value="Identificación personal" style="ellipse;whiteSpace=wrap;html=1;align=center;fontStyle=4;" vertex="1" parent="1">
          <mxGeometry x="-270" y="200" width="100" height="40" as="geometry" />
        </mxCell>
        <mxCell id="Kqt-vZ9Plk5DfBnfXzL9-4" value="Nombre completo" style="ellipse;whiteSpace=wrap;html=1;align=center;" vertex="1" parent="1">
          <mxGeometry x="-430" y="120" width="100" height="40" as="geometry" />
        </mxCell>
        <mxCell id="Kqt-vZ9Plk5DfBnfXzL9-5" value="Email" style="ellipse;whiteSpace=wrap;html=1;align=center;fontStyle=4;" vertex="1" parent="1">
          <mxGeometry x="-590" y="200" width="100" height="40" as="geometry" />
        </mxCell>
        <mxCell id="Kqt-vZ9Plk5DfBnfXzL9-6" value="Usuario" style="whiteSpace=wrap;html=1;align=center;" vertex="1" parent="1">
          <mxGeometry x="-430" y="200" width="100" height="40" as="geometry" />
        </mxCell>
        <mxCell id="Kqt-vZ9Plk5DfBnfXzL9-7" value="Primer nombre" style="ellipse;whiteSpace=wrap;html=1;align=center;" vertex="1" parent="1">
          <mxGeometry x="-590" y="120" width="100" height="40" as="geometry" />
        </mxCell>
        <mxCell id="Kqt-vZ9Plk5DfBnfXzL9-8" value="Segundo nombre" style="ellipse;whiteSpace=wrap;html=1;align=center;" vertex="1" parent="1">
          <mxGeometry x="-590" y="40" width="100" height="40" as="geometry" />
        </mxCell>
        <mxCell id="Kqt-vZ9Plk5DfBnfXzL9-9" value="Primer apellido" style="ellipse;whiteSpace=wrap;html=1;align=center;" vertex="1" parent="1">
          <mxGeometry x="-430" y="40" width="100" height="40" as="geometry" />
        </mxCell>
        <mxCell id="Kqt-vZ9Plk5DfBnfXzL9-10" value="Segundo apellido" style="ellipse;whiteSpace=wrap;html=1;align=center;" vertex="1" parent="1">
          <mxGeometry x="-270" y="40" width="100" height="40" as="geometry" />
        </mxCell>
        <mxCell id="Kqt-vZ9Plk5DfBnfXzL9-11" value="" style="endArrow=none;html=1;rounded=0;" edge="1" parent="1" source="Kqt-vZ9Plk5DfBnfXzL9-7" target="Kqt-vZ9Plk5DfBnfXzL9-4">
          <mxGeometry relative="1" as="geometry">
            <mxPoint x="-480" y="200" as="sourcePoint" />
            <mxPoint x="-535.7247877713755" y="42.85014148574953" as="targetPoint" />
          </mxGeometry>
        </mxCell>
        <mxCell id="Kqt-vZ9Plk5DfBnfXzL9-12" value="" style="endArrow=none;html=1;rounded=0;" edge="1" parent="1" source="Kqt-vZ9Plk5DfBnfXzL9-8" target="Kqt-vZ9Plk5DfBnfXzL9-4">
          <mxGeometry relative="1" as="geometry">
            <mxPoint x="-345" y="84" as="sourcePoint" />
            <mxPoint x="-509.9999999999998" y="40" as="targetPoint" />
          </mxGeometry>
        </mxCell>
        <mxCell id="Kqt-vZ9Plk5DfBnfXzL9-13" value="" style="endArrow=none;html=1;rounded=0;" edge="1" parent="1" source="Kqt-vZ9Plk5DfBnfXzL9-4" target="Kqt-vZ9Plk5DfBnfXzL9-9">
          <mxGeometry relative="1" as="geometry">
            <mxPoint x="-270.0000000000002" y="40" as="sourcePoint" />
            <mxPoint x="-205" y="146" as="targetPoint" />
          </mxGeometry>
        </mxCell>
        <mxCell id="Kqt-vZ9Plk5DfBnfXzL9-14" value="" style="endArrow=none;html=1;rounded=0;" edge="1" parent="1" source="Kqt-vZ9Plk5DfBnfXzL9-4" target="Kqt-vZ9Plk5DfBnfXzL9-10">
          <mxGeometry relative="1" as="geometry">
            <mxPoint x="-244.15654504829286" y="42.878711094494065" as="sourcePoint" />
            <mxPoint x="-195" y="156" as="targetPoint" />
          </mxGeometry>
        </mxCell>
        <mxCell id="Kqt-vZ9Plk5DfBnfXzL9-15" value="" style="endArrow=none;html=1;rounded=0;" edge="1" parent="1" source="Kqt-vZ9Plk5DfBnfXzL9-5" target="Kqt-vZ9Plk5DfBnfXzL9-6">
          <mxGeometry relative="1" as="geometry">
            <mxPoint x="-315" y="114" as="sourcePoint" />
            <mxPoint x="-185" y="166" as="targetPoint" />
          </mxGeometry>
        </mxCell>
        <mxCell id="Kqt-vZ9Plk5DfBnfXzL9-16" value="" style="endArrow=none;html=1;rounded=0;" edge="1" parent="1" source="Kqt-vZ9Plk5DfBnfXzL9-4" target="Kqt-vZ9Plk5DfBnfXzL9-6">
          <mxGeometry relative="1" as="geometry">
            <mxPoint x="-305" y="124" as="sourcePoint" />
            <mxPoint x="-175" y="176" as="targetPoint" />
          </mxGeometry>
        </mxCell>
        <mxCell id="Kqt-vZ9Plk5DfBnfXzL9-17" value="" style="endArrow=none;html=1;rounded=0;" edge="1" parent="1" source="Kqt-vZ9Plk5DfBnfXzL9-3" target="Kqt-vZ9Plk5DfBnfXzL9-6">
          <mxGeometry relative="1" as="geometry">
            <mxPoint x="-295" y="134" as="sourcePoint" />
            <mxPoint x="-165" y="186" as="targetPoint" />
          </mxGeometry>
        </mxCell>
        <mxCell id="Kqt-vZ9Plk5DfBnfXzL9-20" value="Clave" style="ellipse;whiteSpace=wrap;html=1;align=center;" vertex="1" parent="1">
          <mxGeometry x="-830" y="480" width="100" height="40" as="geometry" />
        </mxCell>
        <mxCell id="Kqt-vZ9Plk5DfBnfXzL9-21" value="" style="endArrow=none;html=1;rounded=0;" edge="1" parent="1" source="Kqt-vZ9Plk5DfBnfXzL9-20" target="Kqt-vZ9Plk5DfBnfXzL9-28">
          <mxGeometry width="50" height="50" relative="1" as="geometry">
            <mxPoint x="-480" y="340" as="sourcePoint" />
            <mxPoint x="-430" y="290" as="targetPoint" />
          </mxGeometry>
        </mxCell>
        <mxCell id="Kqt-vZ9Plk5DfBnfXzL9-26" value="" style="triangle;whiteSpace=wrap;html=1;rotation=-90;" vertex="1" parent="1">
          <mxGeometry x="-410" y="270" width="60" height="80" as="geometry" />
        </mxCell>
        <mxCell id="Kqt-vZ9Plk5DfBnfXzL9-27" value="" style="endArrow=none;html=1;rounded=0;shape=link;" edge="1" parent="1" source="Kqt-vZ9Plk5DfBnfXzL9-26" target="Kqt-vZ9Plk5DfBnfXzL9-6">
          <mxGeometry relative="1" as="geometry">
            <mxPoint x="-388.46153846153857" y="282.3076923076924" as="sourcePoint" />
            <mxPoint x="450" y="350" as="targetPoint" />
          </mxGeometry>
        </mxCell>
        <mxCell id="Kqt-vZ9Plk5DfBnfXzL9-28" value="Administrador" style="whiteSpace=wrap;html=1;align=center;" vertex="1" parent="1">
          <mxGeometry x="-670" y="480" width="100" height="40" as="geometry" />
        </mxCell>
        <mxCell id="Kqt-vZ9Plk5DfBnfXzL9-29" value="Cliente" style="whiteSpace=wrap;html=1;align=center;" vertex="1" parent="1">
          <mxGeometry x="-190" y="480" width="100" height="40" as="geometry" />
        </mxCell>
        <mxCell id="Kqt-vZ9Plk5DfBnfXzL9-30" value="" style="endArrow=none;html=1;rounded=0;" edge="1" parent="1" source="Kqt-vZ9Plk5DfBnfXzL9-26" target="Kqt-vZ9Plk5DfBnfXzL9-28">
          <mxGeometry relative="1" as="geometry">
            <mxPoint x="-280" y="410" as="sourcePoint" />
            <mxPoint x="-280" y="370" as="targetPoint" />
          </mxGeometry>
        </mxCell>
        <mxCell id="Kqt-vZ9Plk5DfBnfXzL9-31" value="" style="endArrow=none;html=1;rounded=0;" edge="1" parent="1" source="Kqt-vZ9Plk5DfBnfXzL9-26" target="Kqt-vZ9Plk5DfBnfXzL9-29">
          <mxGeometry relative="1" as="geometry">
            <mxPoint x="-270" y="420" as="sourcePoint" />
            <mxPoint x="-270" y="380" as="targetPoint" />
          </mxGeometry>
        </mxCell>
        <mxCell id="Kqt-vZ9Plk5DfBnfXzL9-32" value="DT" style="text;html=1;align=center;verticalAlign=middle;resizable=0;points=[];autosize=1;strokeColor=none;fillColor=none;" vertex="1" parent="1">
          <mxGeometry x="-370" y="250" width="40" height="30" as="geometry" />
        </mxCell>
        <mxCell id="Kqt-vZ9Plk5DfBnfXzL9-33" value="Rol" style="whiteSpace=wrap;html=1;align=center;" vertex="1" parent="1">
          <mxGeometry x="-670" y="760" width="100" height="40" as="geometry" />
        </mxCell>
        <mxCell id="Kqt-vZ9Plk5DfBnfXzL9-35" value="Autorizado como" style="shape=rhombus;perimeter=rhombusPerimeter;whiteSpace=wrap;html=1;align=center;" vertex="1" parent="1">
          <mxGeometry x="-680" y="600" width="120" height="70" as="geometry" />
        </mxCell>
        <mxCell id="Kqt-vZ9Plk5DfBnfXzL9-37" value="N" style="endArrow=none;html=1;rounded=0;" edge="1" parent="1" source="Kqt-vZ9Plk5DfBnfXzL9-35" target="Kqt-vZ9Plk5DfBnfXzL9-33">
          <mxGeometry relative="1" as="geometry">
            <mxPoint x="-620" y="910" as="sourcePoint" />
            <mxPoint x="-570" y="910" as="targetPoint" />
          </mxGeometry>
        </mxCell>
        <mxCell id="Kqt-vZ9Plk5DfBnfXzL9-38" value="M" style="endArrow=none;html=1;rounded=0;" edge="1" parent="1" source="Kqt-vZ9Plk5DfBnfXzL9-35" target="Kqt-vZ9Plk5DfBnfXzL9-28">
          <mxGeometry relative="1" as="geometry">
            <mxPoint x="-610" y="680" as="sourcePoint" />
            <mxPoint x="-560" y="680" as="targetPoint" />
          </mxGeometry>
        </mxCell>
        <mxCell id="Kqt-vZ9Plk5DfBnfXzL9-43" value="Nombre" style="ellipse;whiteSpace=wrap;html=1;align=center;fontStyle=4;" vertex="1" parent="1">
          <mxGeometry x="-830" y="760" width="100" height="40" as="geometry" />
        </mxCell>
        <mxCell id="Kqt-vZ9Plk5DfBnfXzL9-71" value="Área" style="whiteSpace=wrap;html=1;align=center;" vertex="1" parent="1">
          <mxGeometry x="-190" y="1470" width="100" height="40" as="geometry" />
        </mxCell>
        <mxCell id="Kqt-vZ9Plk5DfBnfXzL9-97" value="Tipo de visitante" style="whiteSpace=wrap;html=1;align=center;" vertex="1" parent="1">
          <mxGeometry x="368.77" y="1040" width="100" height="40" as="geometry" />
        </mxCell>
        <mxCell id="Kqt-vZ9Plk5DfBnfXzL9-99" value="Tipo de Procedencia" style="ellipse;whiteSpace=wrap;html=1;align=center;fontStyle=4;" vertex="1" parent="1">
          <mxGeometry x="531.23" y="1040" width="100" height="40" as="geometry" />
        </mxCell>
        <mxCell id="qFDOHUSYHFr1o0WApgUc-2" value="Teléfono" style="ellipse;shape=doubleEllipse;margin=3;whiteSpace=wrap;html=1;align=center;" vertex="1" parent="1">
          <mxGeometry x="-270" y="120" width="100" height="40" as="geometry" />
        </mxCell>
        <mxCell id="qFDOHUSYHFr1o0WApgUc-3" value="" style="endArrow=none;html=1;rounded=0;" edge="1" parent="1" source="Kqt-vZ9Plk5DfBnfXzL9-6" target="qFDOHUSYHFr1o0WApgUc-2">
          <mxGeometry relative="1" as="geometry">
            <mxPoint x="-260" y="230" as="sourcePoint" />
            <mxPoint x="-100" y="230" as="targetPoint" />
          </mxGeometry>
        </mxCell>
        <mxCell id="qFDOHUSYHFr1o0WApgUc-39" value="Placa de vehículo" style="ellipse;shape=doubleEllipse;margin=3;whiteSpace=wrap;html=1;align=center;" vertex="1" parent="1">
          <mxGeometry x="-350" y="1000" width="100" height="40" as="geometry" />
        </mxCell>
        <mxCell id="1ZeVHOT2A63UaoM2Mehe-14" value="Genera" style="shape=rhombus;perimeter=rhombusPerimeter;whiteSpace=wrap;html=1;align=center;" vertex="1" parent="1">
          <mxGeometry x="358.77" y="600" width="120" height="60" as="geometry" />
        </mxCell>
        <mxCell id="1ZeVHOT2A63UaoM2Mehe-15" value="Factura" style="whiteSpace=wrap;html=1;align=center;" vertex="1" parent="1">
          <mxGeometry x="368.77" y="480" width="100" height="40" as="geometry" />
        </mxCell>
        <mxCell id="1ZeVHOT2A63UaoM2Mehe-19" value="Total" style="ellipse;whiteSpace=wrap;html=1;align=center;" vertex="1" parent="1">
          <mxGeometry x="530" y="400" width="100" height="40" as="geometry" />
        </mxCell>
        <mxCell id="1ZeVHOT2A63UaoM2Mehe-23" value="N" style="endArrow=none;html=1;rounded=0;" edge="1" parent="1" source="1ZeVHOT2A63UaoM2Mehe-14" target="1ZeVHOT2A63UaoM2Mehe-15">
          <mxGeometry width="50" height="50" relative="1" as="geometry">
            <mxPoint x="1518.77" y="235" as="sourcePoint" />
            <mxPoint x="1238.77" as="targetPoint" />
          </mxGeometry>
        </mxCell>
        <mxCell id="1ZeVHOT2A63UaoM2Mehe-25" value="Código" style="ellipse;whiteSpace=wrap;html=1;align=center;fontStyle=4;" vertex="1" parent="1">
          <mxGeometry x="210" y="480" width="100" height="40" as="geometry" />
        </mxCell>
        <mxCell id="1ZeVHOT2A63UaoM2Mehe-26" value="" style="endArrow=none;html=1;rounded=0;" edge="1" parent="1" source="1ZeVHOT2A63UaoM2Mehe-25" target="1ZeVHOT2A63UaoM2Mehe-15">
          <mxGeometry relative="1" as="geometry">
            <mxPoint x="290.0047523777216" y="435.6173761888608" as="sourcePoint" />
            <mxPoint x="148.76999999999998" y="720" as="targetPoint" />
          </mxGeometry>
        </mxCell>
        <mxCell id="1ZeVHOT2A63UaoM2Mehe-28" value="" style="endArrow=none;html=1;rounded=0;" edge="1" parent="1" source="1ZeVHOT2A63UaoM2Mehe-15" target="1ZeVHOT2A63UaoM2Mehe-19">
          <mxGeometry relative="1" as="geometry">
            <mxPoint x="1088.77" y="1000" as="sourcePoint" />
            <mxPoint x="148.76999999999998" y="720" as="targetPoint" />
          </mxGeometry>
        </mxCell>
        <mxCell id="1ZeVHOT2A63UaoM2Mehe-34" value="" style="endArrow=none;html=1;rounded=0;" edge="1" parent="1" source="qFDOHUSYHFr1o0WApgUc-39" target="sY47T2-COHp8lDWQmf8w-21">
          <mxGeometry width="50" height="50" relative="1" as="geometry">
            <mxPoint x="-30" y="610" as="sourcePoint" />
            <mxPoint x="20" y="560" as="targetPoint" />
          </mxGeometry>
        </mxCell>
        <mxCell id="1ZeVHOT2A63UaoM2Mehe-41" value="" style="endArrow=none;html=1;rounded=0;" edge="1" parent="1" source="hWiOat8IrOAbXOlycMeo-8" target="sY47T2-COHp8lDWQmf8w-21">
          <mxGeometry relative="1" as="geometry">
            <mxPoint x="680" y="470" as="sourcePoint" />
            <mxPoint x="290" y="720" as="targetPoint" />
          </mxGeometry>
        </mxCell>
        <mxCell id="1ZeVHOT2A63UaoM2Mehe-100" value="Cupo total" style="ellipse;whiteSpace=wrap;html=1;align=center;" vertex="1" parent="1">
          <mxGeometry x="-350" y="1550" width="100" height="40" as="geometry" />
        </mxCell>
        <mxCell id="1ZeVHOT2A63UaoM2Mehe-101" value="1" style="endArrow=none;html=1;rounded=0;" edge="1" parent="1" source="sY47T2-COHp8lDWQmf8w-12" target="Kqt-vZ9Plk5DfBnfXzL9-71">
          <mxGeometry relative="1" as="geometry">
            <mxPoint x="-890" y="1440" as="sourcePoint" />
            <mxPoint x="-730" y="1500" as="targetPoint" />
          </mxGeometry>
        </mxCell>
        <mxCell id="1ZeVHOT2A63UaoM2Mehe-105" value="" style="endArrow=none;html=1;rounded=0;" edge="1" parent="1" source="Kqt-vZ9Plk5DfBnfXzL9-71" target="1ZeVHOT2A63UaoM2Mehe-100">
          <mxGeometry relative="1" as="geometry">
            <mxPoint x="-430" y="1510" as="sourcePoint" />
            <mxPoint x="-1380" y="1910" as="targetPoint" />
          </mxGeometry>
        </mxCell>
        <mxCell id="1ZeVHOT2A63UaoM2Mehe-122" value="" style="endArrow=none;html=1;rounded=0;" edge="1" parent="1" source="Kqt-vZ9Plk5DfBnfXzL9-99" target="Kqt-vZ9Plk5DfBnfXzL9-97">
          <mxGeometry relative="1" as="geometry">
            <mxPoint x="238.76999999999998" y="700" as="sourcePoint" />
            <mxPoint x="398.77" y="700" as="targetPoint" />
          </mxGeometry>
        </mxCell>
        <mxCell id="1ZeVHOT2A63UaoM2Mehe-135" value="" style="endArrow=none;html=1;rounded=0;" edge="1" parent="1" source="1ZeVHOT2A63UaoM2Mehe-119" target="USUCQsb5pAr8QLoM0wyg-1">
          <mxGeometry relative="1" as="geometry">
            <mxPoint x="1378.77" y="410" as="sourcePoint" />
            <mxPoint x="548.6466473725241" y="844.4206943465958" as="targetPoint" />
          </mxGeometry>
        </mxCell>
        <mxCell id="1ZeVHOT2A63UaoM2Mehe-136" value="Estatus" style="ellipse;whiteSpace=wrap;html=1;align=center;fontStyle=4;" vertex="1" parent="1">
          <mxGeometry x="531.23" y="1200" width="100" height="40" as="geometry" />
        </mxCell>
        <mxCell id="1ZeVHOT2A63UaoM2Mehe-137" value="" style="endArrow=none;html=1;rounded=0;" edge="1" parent="1" source="1ZeVHOT2A63UaoM2Mehe-136" target="Kqt-vZ9Plk5DfBnfXzL9-97">
          <mxGeometry relative="1" as="geometry">
            <mxPoint x="678.77" y="540" as="sourcePoint" />
            <mxPoint x="838.77" y="540" as="targetPoint" />
          </mxGeometry>
        </mxCell>
        <mxCell id="B8EIARJEzoTsojzDx6ol-6" value="Tarifa" style="ellipse;whiteSpace=wrap;html=1;align=center;" vertex="1" parent="1">
          <mxGeometry x="530" y="1280" width="100" height="40" as="geometry" />
        </mxCell>
        <mxCell id="B8EIARJEzoTsojzDx6ol-7" value="Moneda" style="ellipse;whiteSpace=wrap;html=1;align=center;" vertex="1" parent="1">
          <mxGeometry x="688.77" y="1360" width="100" height="40" as="geometry" />
        </mxCell>
        <mxCell id="B8EIARJEzoTsojzDx6ol-8" value="" style="endArrow=none;html=1;rounded=0;" edge="1" parent="1" source="Kqt-vZ9Plk5DfBnfXzL9-97" target="B8EIARJEzoTsojzDx6ol-6">
          <mxGeometry relative="1" as="geometry">
            <mxPoint x="908.77" y="640" as="sourcePoint" />
            <mxPoint x="1048.77" y="630" as="targetPoint" />
          </mxGeometry>
        </mxCell>
        <mxCell id="B8EIARJEzoTsojzDx6ol-9" value="" style="endArrow=none;html=1;rounded=0;" edge="1" parent="1" source="B8EIARJEzoTsojzDx6ol-6" target="B8EIARJEzoTsojzDx6ol-7">
          <mxGeometry relative="1" as="geometry">
            <mxPoint x="1111.2347523777216" y="1205.6173761888608" as="sourcePoint" />
            <mxPoint x="1172" y="1173" as="targetPoint" />
          </mxGeometry>
        </mxCell>
        <mxCell id="B8EIARJEzoTsojzDx6ol-11" value="Moneda" style="ellipse;whiteSpace=wrap;html=1;align=center;" vertex="1" parent="1">
          <mxGeometry x="688.77" y="400" width="100" height="40" as="geometry" />
        </mxCell>
        <mxCell id="B8EIARJEzoTsojzDx6ol-12" value="" style="endArrow=none;html=1;rounded=0;" edge="1" parent="1" source="1ZeVHOT2A63UaoM2Mehe-19" target="B8EIARJEzoTsojzDx6ol-11">
          <mxGeometry relative="1" as="geometry">
            <mxPoint x="1428.77" y="660" as="sourcePoint" />
            <mxPoint x="1138.77" y="540" as="targetPoint" />
          </mxGeometry>
        </mxCell>
        <mxCell id="riO0B1hnQ6P0g7jeHkSF-1" value="Estado de actividad" style="ellipse;whiteSpace=wrap;html=1;align=center;" vertex="1" parent="1">
          <mxGeometry x="-590" y="280" width="100" height="40" as="geometry" />
        </mxCell>
        <mxCell id="riO0B1hnQ6P0g7jeHkSF-2" value="" style="endArrow=none;html=1;rounded=0;entryX=0;entryY=1;entryDx=0;entryDy=0;" edge="1" parent="1" source="riO0B1hnQ6P0g7jeHkSF-1" target="Kqt-vZ9Plk5DfBnfXzL9-6">
          <mxGeometry relative="1" as="geometry">
            <mxPoint x="-210" y="550" as="sourcePoint" />
            <mxPoint x="-50" y="550" as="targetPoint" />
          </mxGeometry>
        </mxCell>
        <mxCell id="RWrSl44hWCOKPZgHyArZ-4" value="" style="endArrow=none;html=1;rounded=0;" edge="1" parent="1" source="Kqt-vZ9Plk5DfBnfXzL9-43" target="Kqt-vZ9Plk5DfBnfXzL9-33">
          <mxGeometry relative="1" as="geometry">
            <mxPoint x="-260" y="910" as="sourcePoint" />
            <mxPoint x="-100" y="910" as="targetPoint" />
          </mxGeometry>
        </mxCell>
        <mxCell id="qe52rmB15biePx1LGS6w-1" value="Estado de pago" style="ellipse;whiteSpace=wrap;html=1;align=center;" vertex="1" parent="1">
          <mxGeometry x="210" y="400" width="100" height="40" as="geometry" />
        </mxCell>
        <mxCell id="qe52rmB15biePx1LGS6w-2" value="" style="endArrow=none;html=1;rounded=0;" edge="1" parent="1" source="1ZeVHOT2A63UaoM2Mehe-15" target="qe52rmB15biePx1LGS6w-1">
          <mxGeometry relative="1" as="geometry">
            <mxPoint x="918.77" y="939.9999999999995" as="sourcePoint" />
            <mxPoint x="1178.77" y="470" as="targetPoint" />
          </mxGeometry>
        </mxCell>
        <mxCell id="sY47T2-COHp8lDWQmf8w-3" value="Realiza" style="shape=rhombus;perimeter=rhombusPerimeter;whiteSpace=wrap;html=1;align=center;" vertex="1" parent="1">
          <mxGeometry x="-200" y="600" width="120" height="70" as="geometry" />
        </mxCell>
        <mxCell id="sY47T2-COHp8lDWQmf8w-4" value="1" style="endArrow=none;html=1;rounded=0;" edge="1" parent="1" source="Kqt-vZ9Plk5DfBnfXzL9-29" target="sY47T2-COHp8lDWQmf8w-3">
          <mxGeometry width="50" height="50" relative="1" as="geometry">
            <mxPoint x="-110" y="490" as="sourcePoint" />
            <mxPoint x="940" y="510" as="targetPoint" />
          </mxGeometry>
        </mxCell>
        <mxCell id="sY47T2-COHp8lDWQmf8w-5" value="N" style="endArrow=none;html=1;rounded=0;" edge="1" parent="1" source="sY47T2-COHp8lDWQmf8w-3" target="sY47T2-COHp8lDWQmf8w-21">
          <mxGeometry width="50" height="50" relative="1" as="geometry">
            <mxPoint x="1000" y="570" as="sourcePoint" />
            <mxPoint x="950" y="505.7692307692307" as="targetPoint" />
          </mxGeometry>
        </mxCell>
        <mxCell id="sY47T2-COHp8lDWQmf8w-10" value="" style="endArrow=none;html=1;rounded=0;" edge="1" parent="1" source="sY47T2-COHp8lDWQmf8w-21" target="xY7ZsWSme33N39OAaJpe-32">
          <mxGeometry width="50" height="50" relative="1" as="geometry">
            <mxPoint x="-167.69230769230762" y="971.5384615384617" as="sourcePoint" />
            <mxPoint x="870" y="480" as="targetPoint" />
          </mxGeometry>
        </mxCell>
        <mxCell id="sY47T2-COHp8lDWQmf8w-12" value="Se realiza en" style="shape=rhombus;perimeter=rhombusPerimeter;whiteSpace=wrap;html=1;align=center;" vertex="1" parent="1">
          <mxGeometry x="-200" y="980" width="120" height="70" as="geometry" />
        </mxCell>
        <mxCell id="sY47T2-COHp8lDWQmf8w-13" value="N" style="endArrow=none;html=1;rounded=0;" edge="1" parent="1" source="sY47T2-COHp8lDWQmf8w-21" target="sY47T2-COHp8lDWQmf8w-12">
          <mxGeometry width="50" height="50" relative="1" as="geometry">
            <mxPoint x="-120" y="830" as="sourcePoint" />
            <mxPoint x="346" y="1090" as="targetPoint" />
          </mxGeometry>
        </mxCell>
        <mxCell id="sY47T2-COHp8lDWQmf8w-21" value="Reservación" style="whiteSpace=wrap;html=1;align=center;" vertex="1" parent="1">
          <mxGeometry x="-190" y="760" width="100" height="40" as="geometry" />
        </mxCell>
        <mxCell id="sY47T2-COHp8lDWQmf8w-38" value="1" style="endArrow=none;html=1;rounded=0;" edge="1" parent="1" source="sY47T2-COHp8lDWQmf8w-21" target="1ZeVHOT2A63UaoM2Mehe-14">
          <mxGeometry width="50" height="50" relative="1" as="geometry">
            <mxPoint x="240" y="440" as="sourcePoint" />
            <mxPoint x="290" y="390" as="targetPoint" />
          </mxGeometry>
        </mxCell>
        <mxCell id="sY47T2-COHp8lDWQmf8w-41" value="N" style="endArrow=none;html=1;rounded=0;" edge="1" parent="1" source="1ZeVHOT2A63UaoM2Mehe-119" target="Kqt-vZ9Plk5DfBnfXzL9-97">
          <mxGeometry width="50" height="50" relative="1" as="geometry">
            <mxPoint x="1078.77" y="750" as="sourcePoint" />
            <mxPoint x="1128.77" y="700" as="targetPoint" />
          </mxGeometry>
        </mxCell>
        <mxCell id="sY47T2-COHp8lDWQmf8w-42" value="M" style="endArrow=none;html=1;rounded=0;" edge="1" parent="1" source="sY47T2-COHp8lDWQmf8w-21" target="1ZeVHOT2A63UaoM2Mehe-119">
          <mxGeometry width="50" height="50" relative="1" as="geometry">
            <mxPoint x="1000" y="720" as="sourcePoint" />
            <mxPoint x="1020" y="600" as="targetPoint" />
          </mxGeometry>
        </mxCell>
        <mxCell id="sY47T2-COHp8lDWQmf8w-43" value="Monto" style="ellipse;whiteSpace=wrap;html=1;align=center;" vertex="1" parent="1">
          <mxGeometry x="688.77" y="1280" width="100" height="40" as="geometry" />
        </mxCell>
        <mxCell id="sY47T2-COHp8lDWQmf8w-44" value="" style="endArrow=none;html=1;rounded=0;" edge="1" parent="1" source="B8EIARJEzoTsojzDx6ol-6" target="sY47T2-COHp8lDWQmf8w-43">
          <mxGeometry relative="1" as="geometry">
            <mxPoint x="760" y="1300" as="sourcePoint" />
            <mxPoint x="760" y="1340" as="targetPoint" />
          </mxGeometry>
        </mxCell>
        <mxCell id="sY47T2-COHp8lDWQmf8w-46" value="" style="endArrow=none;html=1;rounded=0;" edge="1" parent="1" source="Kqt-vZ9Plk5DfBnfXzL9-97" target="YhCTuX_-DWByCGEXrxEa-3">
          <mxGeometry relative="1" as="geometry">
            <mxPoint x="578.77" y="650" as="sourcePoint" />
            <mxPoint x="310" y="1060" as="targetPoint" />
          </mxGeometry>
        </mxCell>
        <mxCell id="hWiOat8IrOAbXOlycMeo-2" value="Monto" style="ellipse;whiteSpace=wrap;html=1;align=center;" vertex="1" parent="1">
          <mxGeometry x="688.77" y="320" width="100" height="40" as="geometry" />
        </mxCell>
        <mxCell id="hWiOat8IrOAbXOlycMeo-3" value="" style="endArrow=none;html=1;rounded=0;" edge="1" parent="1" source="1ZeVHOT2A63UaoM2Mehe-19" target="hWiOat8IrOAbXOlycMeo-2">
          <mxGeometry relative="1" as="geometry">
            <mxPoint x="1428.77" y="630" as="sourcePoint" />
            <mxPoint x="1488.77" y="630" as="targetPoint" />
          </mxGeometry>
        </mxCell>
        <mxCell id="hWiOat8IrOAbXOlycMeo-6" value="Código" style="ellipse;whiteSpace=wrap;html=1;align=center;fontStyle=4;" vertex="1" parent="1">
          <mxGeometry x="-350" y="680" width="100" height="40" as="geometry" />
        </mxCell>
        <mxCell id="hWiOat8IrOAbXOlycMeo-7" value="" style="endArrow=none;html=1;rounded=0;" edge="1" parent="1" source="sY47T2-COHp8lDWQmf8w-21" target="hWiOat8IrOAbXOlycMeo-6">
          <mxGeometry relative="1" as="geometry">
            <mxPoint x="659" y="446" as="sourcePoint" />
            <mxPoint x="570" y="490" as="targetPoint" />
          </mxGeometry>
        </mxCell>
        <mxCell id="hWiOat8IrOAbXOlycMeo-8" value="Fecha de solicitud" style="ellipse;whiteSpace=wrap;html=1;align=center;" vertex="1" parent="1">
          <mxGeometry x="-350" y="760" width="100" height="40" as="geometry" />
        </mxCell>
        <mxCell id="S1TTrgTvm-r0cN4Feflv-1" value="" style="endArrow=none;html=1;rounded=0;" edge="1" parent="1" source="Kqt-vZ9Plk5DfBnfXzL9-97" target="1ZeVHOT2A63UaoM2Mehe-119">
          <mxGeometry relative="1" as="geometry">
            <mxPoint x="642.77" y="1040" as="sourcePoint" />
            <mxPoint x="724.77" y="570" as="targetPoint" />
          </mxGeometry>
        </mxCell>
        <mxCell id="1ZeVHOT2A63UaoM2Mehe-119" value="Visitada por" style="shape=rhombus;perimeter=rhombusPerimeter;whiteSpace=wrap;html=1;align=center;" vertex="1" parent="1">
          <mxGeometry x="358.77" y="750" width="120" height="60" as="geometry" />
        </mxCell>
        <mxCell id="Zk72873NY5vEeb_JB-v2-1" value="&lt;font style=&quot;font-size: 16px;&quot;&gt;&lt;font style=&quot;font-size: 18px;&quot;&gt;&lt;b style=&quot;&quot;&gt;Refugio de Vida Silvestre Bahía Junquillal: Modelo Entidad-Relación&lt;br&gt;&lt;/b&gt;&lt;/font&gt;&lt;br&gt;&lt;font style=&quot;font-size: 16px;&quot;&gt;AlphaTeam: Jason Murillo, Jose Pereira, Marco Piedra, Josué Retana, Ariel Solís&lt;br&gt;&lt;br&gt;Proyecto Integrador de Ingeniería de Software y Bases de Datos&lt;br&gt;&lt;br&gt;Escuela de Ciencias de la Computación e Informática Universidad de Costa Rica&lt;br&gt;&lt;/font&gt;&lt;/font&gt;" style="rounded=0;whiteSpace=wrap;html=1;" vertex="1" parent="1">
          <mxGeometry x="-1520" y="40" width="640" height="200" as="geometry" />
        </mxCell>
        <mxCell id="YhCTuX_-DWByCGEXrxEa-1" value="&lt;u&gt;Nombre&lt;/u&gt;" style="ellipse;whiteSpace=wrap;html=1;align=center;" vertex="1" parent="1">
          <mxGeometry x="130" y="920" width="100" height="40" as="geometry" />
        </mxCell>
        <mxCell id="YhCTuX_-DWByCGEXrxEa-2" value="" style="endArrow=none;html=1;rounded=0;" edge="1" parent="1" source="wtIRTRhurQf4PdZwdl-7-1" target="YhCTuX_-DWByCGEXrxEa-1">
          <mxGeometry relative="1" as="geometry">
            <mxPoint x="459" y="805" as="sourcePoint" />
            <mxPoint x="559" y="854" as="targetPoint" />
          </mxGeometry>
        </mxCell>
        <mxCell id="YhCTuX_-DWByCGEXrxEa-3" value="Tipo de visita" style="ellipse;whiteSpace=wrap;html=1;align=center;fontStyle=4;" vertex="1" parent="1">
          <mxGeometry x="530" y="1120" width="100" height="40" as="geometry" />
        </mxCell>
        <mxCell id="USUCQsb5pAr8QLoM0wyg-1" value="Categoría de pago" style="ellipse;whiteSpace=wrap;html=1;align=center;" vertex="1" parent="1">
          <mxGeometry x="531.23" y="760" width="100" height="40" as="geometry" />
        </mxCell>
        <mxCell id="oBK-15pl8B5aUL9y_Sa4-1" value="Fecha de factura" style="ellipse;whiteSpace=wrap;html=1;align=center;" vertex="1" parent="1">
          <mxGeometry x="368.77" y="400" width="100" height="40" as="geometry" />
        </mxCell>
        <mxCell id="oBK-15pl8B5aUL9y_Sa4-2" value="" style="endArrow=none;html=1;rounded=0;" edge="1" parent="1" source="1ZeVHOT2A63UaoM2Mehe-15" target="oBK-15pl8B5aUL9y_Sa4-1">
          <mxGeometry relative="1" as="geometry">
            <mxPoint x="389" y="490" as="sourcePoint" />
            <mxPoint x="301" y="446" as="targetPoint" />
          </mxGeometry>
        </mxCell>
        <mxCell id="xY7ZsWSme33N39OAaJpe-26" value="Plazo de cancelación" style="ellipse;whiteSpace=wrap;html=1;align=center;" vertex="1" parent="1">
          <mxGeometry x="-190" y="1550" width="100" height="40" as="geometry" />
        </mxCell>
        <mxCell id="xY7ZsWSme33N39OAaJpe-27" value="" style="endArrow=none;html=1;rounded=0;exitX=0.5;exitY=1;exitDx=0;exitDy=0;" edge="1" parent="1" source="Kqt-vZ9Plk5DfBnfXzL9-71" target="xY7ZsWSme33N39OAaJpe-26">
          <mxGeometry relative="1" as="geometry">
            <mxPoint x="-405" y="1510" as="sourcePoint" />
            <mxPoint x="-789" y="2124" as="targetPoint" />
          </mxGeometry>
        </mxCell>
        <mxCell id="xY7ZsWSme33N39OAaJpe-32" value="Fecha de inicio" style="ellipse;whiteSpace=wrap;html=1;align=center;" vertex="1" parent="1">
          <mxGeometry x="-350" y="840" width="100" height="40" as="geometry" />
        </mxCell>
        <mxCell id="xY7ZsWSme33N39OAaJpe-35" value="&lt;u&gt;Tipo de área&lt;/u&gt;" style="ellipse;whiteSpace=wrap;html=1;align=center;" vertex="1" parent="1">
          <mxGeometry x="-350" y="1470" width="100" height="40" as="geometry" />
        </mxCell>
        <mxCell id="QFMk9W_1vLXHhs9HvsDf-7" value="" style="endArrow=none;html=1;rounded=0;entryX=0;entryY=0.5;entryDx=0;entryDy=0;exitX=1;exitY=0.5;exitDx=0;exitDy=0;" edge="1" parent="1" source="xY7ZsWSme33N39OAaJpe-35" target="Kqt-vZ9Plk5DfBnfXzL9-71">
          <mxGeometry width="50" height="50" relative="1" as="geometry">
            <mxPoint x="-300" y="1450" as="sourcePoint" />
            <mxPoint x="-250" y="1400" as="targetPoint" />
          </mxGeometry>
        </mxCell>
        <mxCell id="QFMk9W_1vLXHhs9HvsDf-9" value="" style="endArrow=none;html=1;rounded=0;entryX=1;entryY=1;entryDx=0;entryDy=0;" edge="1" parent="1" source="xY7ZsWSme33N39OAaJpe-37" target="Kqt-vZ9Plk5DfBnfXzL9-71">
          <mxGeometry width="50" height="50" relative="1" as="geometry">
            <mxPoint x="-60" y="1540" as="sourcePoint" />
            <mxPoint x="-10" y="1490" as="targetPoint" />
          </mxGeometry>
        </mxCell>
        <mxCell id="xY7ZsWSme33N39OAaJpe-37" value="Días Inactivos" style="ellipse;shape=doubleEllipse;margin=3;whiteSpace=wrap;html=1;align=center;" vertex="1" parent="1">
          <mxGeometry x="-30" y="1550" width="100" height="40" as="geometry" />
        </mxCell>
        <mxCell id="xY7ZsWSme33N39OAaJpe-41" value="Hora de apertura" style="ellipse;whiteSpace=wrap;html=1;align=center;" vertex="1" parent="1">
          <mxGeometry x="-30" y="1390" width="100" height="40" as="geometry" />
        </mxCell>
        <mxCell id="xY7ZsWSme33N39OAaJpe-42" value="Hora de cierre" style="ellipse;whiteSpace=wrap;html=1;align=center;" vertex="1" parent="1">
          <mxGeometry x="-30" y="1470" width="100" height="40" as="geometry" />
        </mxCell>
        <mxCell id="xY7ZsWSme33N39OAaJpe-43" value="" style="endArrow=none;html=1;rounded=0;" edge="1" parent="1" source="xY7ZsWSme33N39OAaJpe-41" target="Kqt-vZ9Plk5DfBnfXzL9-71">
          <mxGeometry width="50" height="50" relative="1" as="geometry">
            <mxPoint y="1564" as="sourcePoint" />
            <mxPoint x="-80" y="1520" as="targetPoint" />
          </mxGeometry>
        </mxCell>
        <mxCell id="xY7ZsWSme33N39OAaJpe-44" value="" style="endArrow=none;html=1;rounded=0;" edge="1" parent="1" source="xY7ZsWSme33N39OAaJpe-42" target="Kqt-vZ9Plk5DfBnfXzL9-71">
          <mxGeometry width="50" height="50" relative="1" as="geometry">
            <mxPoint x="-20" y="1500" as="sourcePoint" />
            <mxPoint x="-80" y="1500" as="targetPoint" />
          </mxGeometry>
        </mxCell>
        <mxCell id="O3FmPoLUrpBaHSKhV0Ag-1" value="Fecha de fin" style="ellipse;whiteSpace=wrap;html=1;align=center;" vertex="1" parent="1">
          <mxGeometry x="-350" y="920" width="100" height="40" as="geometry" />
        </mxCell>
        <mxCell id="O3FmPoLUrpBaHSKhV0Ag-2" value="" style="endArrow=none;html=1;rounded=0;exitX=0.5;exitY=0;exitDx=0;exitDy=0;" edge="1" parent="1" source="O3FmPoLUrpBaHSKhV0Ag-1" target="sY47T2-COHp8lDWQmf8w-21">
          <mxGeometry relative="1" as="geometry">
            <mxPoint x="-290" y="1000" as="sourcePoint" />
            <mxPoint x="-240" y="900" as="targetPoint" />
          </mxGeometry>
        </mxCell>
        <mxCell id="oRBXmiKJzxuvldblsA3g-1" value="Estado de actividad" style="ellipse;whiteSpace=wrap;html=1;align=center;" vertex="1" parent="1">
          <mxGeometry x="-30" y="840" width="100" height="40" as="geometry" />
        </mxCell>
        <mxCell id="oRBXmiKJzxuvldblsA3g-2" value="" style="endArrow=none;html=1;rounded=0;" edge="1" parent="1" source="oRBXmiKJzxuvldblsA3g-1" target="sY47T2-COHp8lDWQmf8w-21">
          <mxGeometry relative="1" as="geometry">
            <mxPoint x="-290" y="930" as="sourcePoint" />
            <mxPoint x="-153" y="810" as="targetPoint" />
          </mxGeometry>
        </mxCell>
        <mxCell id="9Pt90IQPoNxhrhOu7RAc-1" value="Cantidad de Visitantes" style="ellipse;whiteSpace=wrap;html=1;align=center;" vertex="1" parent="1">
          <mxGeometry x="531.23" y="680" width="100" height="40" as="geometry" />
        </mxCell>
        <mxCell id="9Pt90IQPoNxhrhOu7RAc-2" value="" style="endArrow=none;html=1;rounded=0;exitX=1;exitY=0;exitDx=0;exitDy=0;entryX=0;entryY=1;entryDx=0;entryDy=0;" edge="1" parent="1" source="1ZeVHOT2A63UaoM2Mehe-119" target="9Pt90IQPoNxhrhOu7RAc-1">
          <mxGeometry relative="1" as="geometry">
            <mxPoint x="-56" y="743" as="sourcePoint" />
            <mxPoint x="-120" y="700" as="targetPoint" />
          </mxGeometry>
        </mxCell>
        <mxCell id="wtIRTRhurQf4PdZwdl-7-1" value="País" style="whiteSpace=wrap;html=1;align=center;" vertex="1" parent="1">
          <mxGeometry x="130" y="995" width="100" height="40" as="geometry" />
        </mxCell>
        <mxCell id="wtIRTRhurQf4PdZwdl-7-2" value="Proviene de" style="shape=rhombus;perimeter=rhombusPerimeter;whiteSpace=wrap;html=1;align=center;" vertex="1" parent="1">
          <mxGeometry x="-40" y="940" width="120" height="70" as="geometry" />
        </mxCell>
        <mxCell id="wtIRTRhurQf4PdZwdl-7-3" value="N" style="endArrow=none;html=1;rounded=0;" edge="1" parent="1" source="wtIRTRhurQf4PdZwdl-7-2" target="sY47T2-COHp8lDWQmf8w-21">
          <mxGeometry relative="1" as="geometry">
            <mxPoint x="-36" y="853" as="sourcePoint" />
            <mxPoint x="-100" y="810" as="targetPoint" />
          </mxGeometry>
        </mxCell>
        <mxCell id="wtIRTRhurQf4PdZwdl-7-4" value="1" style="endArrow=none;html=1;rounded=0;" edge="1" parent="1" source="wtIRTRhurQf4PdZwdl-7-1" target="wtIRTRhurQf4PdZwdl-7-2">
          <mxGeometry relative="1" as="geometry">
            <mxPoint x="31" y="1001" as="sourcePoint" />
            <mxPoint x="-115" y="810" as="targetPoint" />
          </mxGeometry>
        </mxCell>
        <mxCell id="JIAFZDFLffqoH1GOSUpN-1" value="Cupo en línea" style="ellipse;whiteSpace=wrap;html=1;align=center;" vertex="1" parent="1">
          <mxGeometry x="-350" y="1390" width="100" height="40" as="geometry" />
        </mxCell>
        <mxCell id="JIAFZDFLffqoH1GOSUpN-2" value="" style="endArrow=none;html=1;rounded=0;" edge="1" parent="1" source="Kqt-vZ9Plk5DfBnfXzL9-71" target="JIAFZDFLffqoH1GOSUpN-1">
          <mxGeometry width="50" height="50" relative="1" as="geometry">
            <mxPoint x="-240" y="1500" as="sourcePoint" />
            <mxPoint x="-180" y="1500" as="targetPoint" />
          </mxGeometry>
        </mxCell>
        <mxCell id="JIAFZDFLffqoH1GOSUpN-3" value="Provincia" style="whiteSpace=wrap;html=1;align=center;" vertex="1" parent="1">
          <mxGeometry x="130" y="1240" width="100" height="40" as="geometry" />
        </mxCell>
        <mxCell id="JIAFZDFLffqoH1GOSUpN-5" value="Se compone de" style="shape=rhombus;perimeter=rhombusPerimeter;whiteSpace=wrap;html=1;align=center;" vertex="1" parent="1">
          <mxGeometry x="120" y="1100" width="120" height="70" as="geometry" />
        </mxCell>
        <mxCell id="JIAFZDFLffqoH1GOSUpN-6" value="1" style="endArrow=none;html=1;rounded=0;" edge="1" parent="1" source="JIAFZDFLffqoH1GOSUpN-5" target="wtIRTRhurQf4PdZwdl-7-1">
          <mxGeometry relative="1" as="geometry">
            <mxPoint x="190" y="1005" as="sourcePoint" />
            <mxPoint x="190" y="970" as="targetPoint" />
          </mxGeometry>
        </mxCell>
        <mxCell id="JIAFZDFLffqoH1GOSUpN-7" value="N" style="endArrow=none;html=1;rounded=0;" edge="1" parent="1" source="JIAFZDFLffqoH1GOSUpN-3" target="JIAFZDFLffqoH1GOSUpN-5">
          <mxGeometry relative="1" as="geometry">
            <mxPoint x="190" y="1110" as="sourcePoint" />
            <mxPoint x="190" y="1045" as="targetPoint" />
          </mxGeometry>
        </mxCell>
        <mxCell id="JIAFZDFLffqoH1GOSUpN-8" value="&lt;u&gt;Nombre&lt;/u&gt;" style="ellipse;whiteSpace=wrap;html=1;align=center;" vertex="1" parent="1">
          <mxGeometry x="130" y="1320" width="100" height="40" as="geometry" />
        </mxCell>
        <mxCell id="JIAFZDFLffqoH1GOSUpN-9" value="" style="endArrow=none;html=1;rounded=0;" edge="1" parent="1" source="JIAFZDFLffqoH1GOSUpN-8" target="JIAFZDFLffqoH1GOSUpN-3">
          <mxGeometry relative="1" as="geometry">
            <mxPoint x="190" y="1250" as="sourcePoint" />
            <mxPoint x="190" y="1180" as="targetPoint" />
          </mxGeometry>
        </mxCell>
        <mxCell id="p5uMREdx5hDPIIeOXlSN-9" value="1" style="endArrow=none;html=1;rounded=0;" edge="1" parent="1" source="JIAFZDFLffqoH1GOSUpN-3" target="p5uMREdx5hDPIIeOXlSN-10">
          <mxGeometry relative="1" as="geometry">
            <mxPoint x="140" y="1025" as="sourcePoint" />
            <mxPoint x="90" y="1025" as="targetPoint" />
          </mxGeometry>
        </mxCell>
        <mxCell id="p5uMREdx5hDPIIeOXlSN-10" value="Proviene de" style="shape=rhombus;perimeter=rhombusPerimeter;whiteSpace=wrap;html=1;align=center;" vertex="1" parent="1">
          <mxGeometry x="-50" y="1100" width="120" height="70" as="geometry" />
        </mxCell>
        <mxCell id="p5uMREdx5hDPIIeOXlSN-11" value="N" style="endArrow=none;html=1;rounded=0;" edge="1" parent="1" source="p5uMREdx5hDPIIeOXlSN-10" target="sY47T2-COHp8lDWQmf8w-21">
          <mxGeometry relative="1" as="geometry">
            <mxPoint x="13" y="1000" as="sourcePoint" />
            <mxPoint x="-116" y="810" as="targetPoint" />
          </mxGeometry>
        </mxCell>
      </root>
    </mxGraphModel>
  </diagram>
  <diagram id="FkpZm7iR8bxo6Gf0Ejyg" name="Relacional">
    <mxGraphModel grid="1" page="1" gridSize="10" guides="1" tooltips="1" connect="1" arrows="1" fold="1" pageScale="1" pageWidth="850" pageHeight="1100" math="0" shadow="0">
      <root>
        <mxCell id="0" />
        <mxCell id="1" parent="0" />
        <mxCell id="G2EhGgd-BieDhyvPyRMn-3" value="Usuario" style="rounded=0;whiteSpace=wrap;html=1;" vertex="1" parent="1">
          <mxGeometry x="-120" y="320" width="120" height="40" as="geometry" />
        </mxCell>
        <mxCell id="G2EhGgd-BieDhyvPyRMn-4" value="&lt;u&gt;Email&lt;/u&gt;" style="rounded=0;whiteSpace=wrap;html=1;" vertex="1" parent="1">
          <mxGeometry x="-120" y="360" width="120" height="40" as="geometry" />
        </mxCell>
        <mxCell id="G2EhGgd-BieDhyvPyRMn-6" value="PrimerNombre" style="rounded=0;whiteSpace=wrap;html=1;" vertex="1" parent="1">
          <mxGeometry x="120" y="360" width="120" height="40" as="geometry" />
        </mxCell>
        <mxCell id="G2EhGgd-BieDhyvPyRMn-7" value="SegundoNombre" style="rounded=0;whiteSpace=wrap;html=1;" vertex="1" parent="1">
          <mxGeometry x="240" y="360" width="120" height="40" as="geometry" />
        </mxCell>
        <mxCell id="G2EhGgd-BieDhyvPyRMn-8" value="PrimerApellido" style="rounded=0;whiteSpace=wrap;html=1;" vertex="1" parent="1">
          <mxGeometry x="360" y="360" width="120" height="40" as="geometry" />
        </mxCell>
        <mxCell id="G2EhGgd-BieDhyvPyRMn-9" value="SegundoApellido" style="rounded=0;whiteSpace=wrap;html=1;" vertex="1" parent="1">
          <mxGeometry x="480" y="360" width="120" height="40" as="geometry" />
        </mxCell>
        <mxCell id="G2EhGgd-BieDhyvPyRMn-10" value="Telefono" style="rounded=0;whiteSpace=wrap;html=1;" vertex="1" parent="1">
          <mxGeometry x="-120" y="520" width="120" height="40" as="geometry" />
        </mxCell>
        <mxCell id="G2EhGgd-BieDhyvPyRMn-11" value="&lt;u&gt;Email&lt;/u&gt;" style="rounded=0;whiteSpace=wrap;html=1;" vertex="1" parent="1">
          <mxGeometry x="-120" y="560" width="120" height="40" as="geometry" />
        </mxCell>
        <mxCell id="G2EhGgd-BieDhyvPyRMn-12" value="FK(Usuario)" style="rounded=0;whiteSpace=wrap;html=1;" vertex="1" parent="1">
          <mxGeometry x="-120" y="600" width="120" height="40" as="geometry" />
        </mxCell>
        <mxCell id="G2EhGgd-BieDhyvPyRMn-13" value="&lt;u&gt;Numero&lt;/u&gt;" style="rounded=0;whiteSpace=wrap;html=1;" vertex="1" parent="1">
          <mxGeometry y="560" width="120" height="40" as="geometry" />
        </mxCell>
        <mxCell id="DeBKQpgS0AdXYMMYFWvQ-1" value="Cedula" style="rounded=0;whiteSpace=wrap;html=1;" vertex="1" parent="1">
          <mxGeometry y="360" width="120" height="40" as="geometry" />
        </mxCell>
        <mxCell id="6jY_ThXa-aDyUxuQOMhe-20" value="Administrador" style="rounded=0;whiteSpace=wrap;html=1;" vertex="1" parent="1">
          <mxGeometry x="-120" y="720" width="120" height="40" as="geometry" />
        </mxCell>
        <mxCell id="6jY_ThXa-aDyUxuQOMhe-21" value="&lt;u&gt;Email&lt;/u&gt;" style="rounded=0;whiteSpace=wrap;html=1;" vertex="1" parent="1">
          <mxGeometry x="-120" y="760" width="120" height="40" as="geometry" />
        </mxCell>
        <mxCell id="6jY_ThXa-aDyUxuQOMhe-22" value="FK(Usuario)" style="rounded=0;whiteSpace=wrap;html=1;" vertex="1" parent="1">
          <mxGeometry x="-120" y="800" width="120" height="40" as="geometry" />
        </mxCell>
        <mxCell id="6jY_ThXa-aDyUxuQOMhe-25" value="Clave" style="rounded=0;whiteSpace=wrap;html=1;" vertex="1" parent="1">
          <mxGeometry y="760" width="120" height="40" as="geometry" />
        </mxCell>
        <mxCell id="6jY_ThXa-aDyUxuQOMhe-26" value="" style="endArrow=none;dashed=1;html=1;dashPattern=1 3;strokeWidth=2;rounded=0;" edge="1" parent="1" source="6jY_ThXa-aDyUxuQOMhe-20" target="6jY_ThXa-aDyUxuQOMhe-27">
          <mxGeometry width="50" height="50" relative="1" as="geometry">
            <mxPoint x="410" y="1290" as="sourcePoint" />
            <mxPoint x="308.57142857142844" y="1200" as="targetPoint" />
          </mxGeometry>
        </mxCell>
        <mxCell id="6jY_ThXa-aDyUxuQOMhe-27" value="&lt;b&gt;NUNCA&lt;/b&gt; guardar contraseñas en texto plano, sino solo el hash (e.g., con algoritmo bcrypt).&lt;br&gt;&lt;br&gt;En el inicio de sesión solo se valida si el hash de la clave ingresada coincide con el hash almacenado.&lt;br&gt;&lt;br&gt;No borrar administradores, sino solo desactivarlos (i.e., borrado lógico) en la columna EstadoActivo. &lt;br&gt;&lt;br&gt;Inicialmente el valor de EstadoActividad es activo." style="shape=note;whiteSpace=wrap;html=1;backgroundOutline=1;darkOpacity=0.05;" vertex="1" parent="1">
          <mxGeometry x="-800" y="720" width="600" height="120" as="geometry" />
        </mxCell>
        <mxCell id="EmVSwugjhua0iY-RNRY--4" value="Rol" style="rounded=0;whiteSpace=wrap;html=1;" vertex="1" parent="1">
          <mxGeometry x="-120" y="920" width="120" height="40" as="geometry" />
        </mxCell>
        <mxCell id="2rsxRjrkgRpbVNMzEIxT-1" value="Cliente" style="rounded=0;whiteSpace=wrap;html=1;" vertex="1" parent="1">
          <mxGeometry x="-120" y="1320" width="120" height="40" as="geometry" />
        </mxCell>
        <mxCell id="2rsxRjrkgRpbVNMzEIxT-2" value="&lt;u&gt;Email&lt;/u&gt;" style="rounded=0;whiteSpace=wrap;html=1;" vertex="1" parent="1">
          <mxGeometry x="-120" y="1360" width="120" height="40" as="geometry" />
        </mxCell>
        <mxCell id="2rsxRjrkgRpbVNMzEIxT-3" value="FK(Usuario)" style="rounded=0;whiteSpace=wrap;html=1;" vertex="1" parent="1">
          <mxGeometry x="-120" y="1400" width="120" height="40" as="geometry" />
        </mxCell>
        <mxCell id="2rsxRjrkgRpbVNMzEIxT-5" value="Vehiculo" style="rounded=0;whiteSpace=wrap;html=1;" vertex="1" parent="1">
          <mxGeometry x="-120" y="1520" width="120" height="40" as="geometry" />
        </mxCell>
        <mxCell id="2rsxRjrkgRpbVNMzEIxT-6" value="&lt;u&gt;CodigoReservacion&lt;/u&gt;" style="rounded=0;whiteSpace=wrap;html=1;" vertex="1" parent="1">
          <mxGeometry x="-120" y="1560" width="120" height="40" as="geometry" />
        </mxCell>
        <mxCell id="2rsxRjrkgRpbVNMzEIxT-7" value="FK(Reservacion)" style="rounded=0;whiteSpace=wrap;html=1;" vertex="1" parent="1">
          <mxGeometry x="-120" y="1600" width="120" height="40" as="geometry" />
        </mxCell>
        <mxCell id="2rsxRjrkgRpbVNMzEIxT-8" value="&lt;u&gt;Placa&lt;/u&gt;" style="rounded=0;whiteSpace=wrap;html=1;" vertex="1" parent="1">
          <mxGeometry y="1560" width="120" height="40" as="geometry" />
        </mxCell>
        <mxCell id="3dpYSZLMDqSO1D1mwGwg-21" value="Reservacion" style="rounded=0;whiteSpace=wrap;html=1;" vertex="1" parent="1">
          <mxGeometry x="-120" y="1720" width="120" height="40" as="geometry" />
        </mxCell>
        <mxCell id="Vd-XnI_gb6v3i5k1gX---1" value="TipoVisitante" style="rounded=0;whiteSpace=wrap;html=1;" vertex="1" parent="1">
          <mxGeometry x="-120" y="2640" width="120" height="40" as="geometry" />
        </mxCell>
        <mxCell id="Vd-XnI_gb6v3i5k1gX---4" value="&lt;u&gt;Estatus&lt;/u&gt;" style="rounded=0;whiteSpace=wrap;html=1;" vertex="1" parent="1">
          <mxGeometry x="120" y="2680" width="120" height="40" as="geometry" />
        </mxCell>
        <mxCell id="6s2_SbmTKTO39B6BWGmX-1" value="Las combinaciones concretas de permisos, asociados a roles de administradores, se realizan en la aplicación." style="shape=note;whiteSpace=wrap;html=1;backgroundOutline=1;darkOpacity=0.05;" vertex="1" parent="1">
          <mxGeometry x="-800" y="920" width="600" height="120" as="geometry" />
        </mxCell>
        <mxCell id="6s2_SbmTKTO39B6BWGmX-2" value="" style="endArrow=none;dashed=1;html=1;dashPattern=1 3;strokeWidth=2;rounded=0;" edge="1" parent="1" source="EmVSwugjhua0iY-RNRY--4" target="6s2_SbmTKTO39B6BWGmX-1">
          <mxGeometry width="50" height="50" relative="1" as="geometry">
            <mxPoint x="200" y="1510" as="sourcePoint" />
            <mxPoint x="713" y="1400" as="targetPoint" />
          </mxGeometry>
        </mxCell>
        <mxCell id="_cOuxwL_ln7kzlh5F8cW-1" value="Factura" style="rounded=0;whiteSpace=wrap;html=1;" vertex="1" parent="1">
          <mxGeometry x="-120" y="3040" width="120" height="40" as="geometry" />
        </mxCell>
        <mxCell id="9DoZowPCmfBiU6svDJ_t-1" value="&lt;u&gt;Codigo&lt;/u&gt;" style="rounded=0;whiteSpace=wrap;html=1;" vertex="1" parent="1">
          <mxGeometry x="-120" y="3080" width="120" height="40" as="geometry" />
        </mxCell>
        <mxCell id="9l0rJ2FlVNl4O0yeJf00-2" value="EstadoPago" style="rounded=0;whiteSpace=wrap;html=1;" vertex="1" parent="1">
          <mxGeometry x="120" y="3080" width="120" height="40" as="geometry" />
        </mxCell>
        <mxCell id="cdNZccactJUslBMu3JoY-1" value="Moneda" style="rounded=0;whiteSpace=wrap;html=1;" vertex="1" parent="1">
          <mxGeometry x="480" y="3080" width="120" height="40" as="geometry" />
        </mxCell>
        <mxCell id="cdNZccactJUslBMu3JoY-2" value="Monto" style="rounded=0;whiteSpace=wrap;html=1;" vertex="1" parent="1">
          <mxGeometry x="360" y="3080" width="120" height="40" as="geometry" />
        </mxCell>
        <mxCell id="BlWLAsO3mwMPHou-nDRG-1" value="CodigoReservacion" style="rounded=0;whiteSpace=wrap;html=1;" vertex="1" parent="1">
          <mxGeometry y="3080" width="120" height="40" as="geometry" />
        </mxCell>
        <mxCell id="BlWLAsO3mwMPHou-nDRG-2" value="FK(Reservacion)" style="rounded=0;whiteSpace=wrap;html=1;" vertex="1" parent="1">
          <mxGeometry y="3120" width="120" height="40" as="geometry" />
        </mxCell>
        <mxCell id="TaYOKTYqszJLo4tjVtAH-1" value="&lt;u&gt;Nombre&lt;/u&gt;" style="rounded=0;whiteSpace=wrap;html=1;" vertex="1" parent="1">
          <mxGeometry x="-120" y="960" width="120" height="40" as="geometry" />
        </mxCell>
        <mxCell id="6Q-LN-iuVSTYAUieE8iZ-1" value="Autorizacion" style="rounded=0;whiteSpace=wrap;html=1;" vertex="1" parent="1">
          <mxGeometry x="-120" y="1120" width="120" height="40" as="geometry" />
        </mxCell>
        <mxCell id="6Q-LN-iuVSTYAUieE8iZ-2" value="&lt;u&gt;EmailAdmin&lt;/u&gt;" style="rounded=0;whiteSpace=wrap;html=1;" vertex="1" parent="1">
          <mxGeometry x="-120" y="1160" width="120" height="40" as="geometry" />
        </mxCell>
        <mxCell id="6Q-LN-iuVSTYAUieE8iZ-3" value="FK(Administrador)" style="rounded=0;whiteSpace=wrap;html=1;" vertex="1" parent="1">
          <mxGeometry x="-120" y="1200" width="120" height="40" as="geometry" />
        </mxCell>
        <mxCell id="6Q-LN-iuVSTYAUieE8iZ-4" value="&lt;u&gt;NombreRol&lt;/u&gt;" style="rounded=0;whiteSpace=wrap;html=1;" vertex="1" parent="1">
          <mxGeometry y="1160" width="120" height="40" as="geometry" />
        </mxCell>
        <mxCell id="6Q-LN-iuVSTYAUieE8iZ-5" value="FK(Rol)" style="rounded=0;whiteSpace=wrap;html=1;" vertex="1" parent="1">
          <mxGeometry y="1200" width="120" height="40" as="geometry" />
        </mxCell>
        <mxCell id="5_whyIzbTb_RU3A8yYqa-2" value="FK(Cliente)" style="rounded=0;whiteSpace=wrap;html=1;" vertex="1" parent="1">
          <mxGeometry y="1800" width="120" height="40" as="geometry" />
        </mxCell>
        <mxCell id="5EZlQprwv3C6Q5ybE4LH-1" value="&lt;u&gt;Codigo&lt;/u&gt;" style="rounded=0;whiteSpace=wrap;html=1;" vertex="1" parent="1">
          <mxGeometry x="-120" y="1760" width="120" height="40" as="geometry" />
        </mxCell>
        <mxCell id="5EZlQprwv3C6Q5ybE4LH-2" value="Email" style="rounded=0;whiteSpace=wrap;html=1;" vertex="1" parent="1">
          <mxGeometry y="1760" width="120" height="40" as="geometry" />
        </mxCell>
        <mxCell id="5EZlQprwv3C6Q5ybE4LH-3" value="FechaSolicitud" style="rounded=0;whiteSpace=wrap;html=1;" vertex="1" parent="1">
          <mxGeometry x="240" y="1760" width="120" height="40" as="geometry" />
        </mxCell>
        <mxCell id="5EZlQprwv3C6Q5ybE4LH-4" value="Cédula es una identificación personal oficial. Incluye pasaporte y carnet de residente o refugiado." style="shape=note;whiteSpace=wrap;html=1;backgroundOutline=1;darkOpacity=0.05;" vertex="1" parent="1">
          <mxGeometry x="-800" y="320" width="600" height="120" as="geometry" />
        </mxCell>
        <mxCell id="5EZlQprwv3C6Q5ybE4LH-5" value="" style="endArrow=none;dashed=1;html=1;dashPattern=1 3;strokeWidth=2;rounded=0;" edge="1" parent="1" source="5EZlQprwv3C6Q5ybE4LH-4" target="G2EhGgd-BieDhyvPyRMn-3">
          <mxGeometry width="50" height="50" relative="1" as="geometry">
            <mxPoint x="250" y="470" as="sourcePoint" />
            <mxPoint x="343" y="810" as="targetPoint" />
          </mxGeometry>
        </mxCell>
        <mxCell id="5EZlQprwv3C6Q5ybE4LH-11" value="FechaInicio" style="rounded=0;whiteSpace=wrap;html=1;" vertex="1" parent="1">
          <mxGeometry x="360" y="1760" width="120" height="40" as="geometry" />
        </mxCell>
        <mxCell id="5EZlQprwv3C6Q5ybE4LH-12" value="FechaFin" style="rounded=0;whiteSpace=wrap;html=1;" vertex="1" parent="1">
          <mxGeometry x="480" y="1760" width="120" height="40" as="geometry" />
        </mxCell>
        <mxCell id="rwM2l7UwybJ-9SMZpACe-3" value="Area" style="rounded=0;whiteSpace=wrap;html=1;" vertex="1" parent="1">
          <mxGeometry x="-120" y="2240" width="120" height="40" as="geometry" />
        </mxCell>
        <mxCell id="rwM2l7UwybJ-9SMZpACe-4" value="&lt;u&gt;Tipo&lt;/u&gt;" style="rounded=0;whiteSpace=wrap;html=1;" vertex="1" parent="1">
          <mxGeometry x="-120" y="2280" width="120" height="40" as="geometry" />
        </mxCell>
        <mxCell id="rwM2l7UwybJ-9SMZpACe-8" value="Cupo" style="rounded=0;whiteSpace=wrap;html=1;" vertex="1" parent="1">
          <mxGeometry y="2280" width="120" height="40" as="geometry" />
        </mxCell>
        <mxCell id="rwM2l7UwybJ-9SMZpACe-25" value="Monto" style="rounded=0;whiteSpace=wrap;html=1;" vertex="1" parent="1">
          <mxGeometry x="240" y="2680" width="120" height="40" as="geometry" />
        </mxCell>
        <mxCell id="rwM2l7UwybJ-9SMZpACe-26" value="Moneda" style="rounded=0;whiteSpace=wrap;html=1;" vertex="1" parent="1">
          <mxGeometry x="360" y="2680" width="120" height="40" as="geometry" />
        </mxCell>
        <mxCell id="rwM2l7UwybJ-9SMZpACe-29" value="Monto de tarifa según la combinación de tipo de procedencia (nacional o extranjero), tipo de visita (camping o picnic) y estatus (adulto regular, adulto mayor, etc.), con base en la plantilla de SEMEC." style="shape=note;whiteSpace=wrap;html=1;backgroundOutline=1;darkOpacity=0.05;" vertex="1" parent="1">
          <mxGeometry x="-800" y="2640" width="600" height="120" as="geometry" />
        </mxCell>
        <mxCell id="rwM2l7UwybJ-9SMZpACe-30" value="" style="endArrow=none;dashed=1;html=1;dashPattern=1 3;strokeWidth=2;rounded=0;" edge="1" parent="1" source="Vd-XnI_gb6v3i5k1gX---1" target="rwM2l7UwybJ-9SMZpACe-29">
          <mxGeometry width="50" height="50" relative="1" as="geometry">
            <mxPoint x="265" y="2640" as="sourcePoint" />
            <mxPoint x="515" y="2581" as="targetPoint" />
          </mxGeometry>
        </mxCell>
        <mxCell id="Xx3Ql6ZHL8iLyU44IA0J-1" value="Se registra si el cobro de la factura está pendiente o ya fue pagado. Se inicializa en falso.&lt;br&gt;&lt;br&gt;El monto se calcula con base en características de visitantes (tipo de procedencia, tipo de visita, estatus, categoría de pago).&lt;br&gt;&lt;br&gt;Si aplica, se incluyen servicios independientes de características de visitantes, según tiempo de uso." style="shape=note;whiteSpace=wrap;html=1;backgroundOutline=1;darkOpacity=0.05;" vertex="1" parent="1">
          <mxGeometry x="-800" y="3040" width="600" height="120" as="geometry" />
        </mxCell>
        <mxCell id="Xx3Ql6ZHL8iLyU44IA0J-2" value="" style="endArrow=none;dashed=1;html=1;dashPattern=1 3;strokeWidth=2;rounded=0;" edge="1" parent="1" source="Xx3Ql6ZHL8iLyU44IA0J-1" target="_cOuxwL_ln7kzlh5F8cW-1">
          <mxGeometry width="50" height="50" relative="1" as="geometry">
            <mxPoint x="548" y="3130" as="sourcePoint" />
            <mxPoint x="539" y="3210" as="targetPoint" />
          </mxGeometry>
        </mxCell>
        <mxCell id="Xx3Ql6ZHL8iLyU44IA0J-7" value="UNIQUE, NOT NULL" style="rounded=0;whiteSpace=wrap;html=1;" vertex="1" parent="1">
          <mxGeometry y="400" width="120" height="40" as="geometry" />
        </mxCell>
        <mxCell id="Xx3Ql6ZHL8iLyU44IA0J-8" value="NOT NULL" style="rounded=0;whiteSpace=wrap;html=1;" vertex="1" parent="1">
          <mxGeometry x="120" y="400" width="120" height="40" as="geometry" />
        </mxCell>
        <mxCell id="Xx3Ql6ZHL8iLyU44IA0J-9" value="NOT NULL" style="rounded=0;whiteSpace=wrap;html=1;" vertex="1" parent="1">
          <mxGeometry x="360" y="400" width="120" height="40" as="geometry" />
        </mxCell>
        <mxCell id="Xx3Ql6ZHL8iLyU44IA0J-11" value="NOT NULL" style="rounded=0;whiteSpace=wrap;html=1;" vertex="1" parent="1">
          <mxGeometry y="800" width="120" height="40" as="geometry" />
        </mxCell>
        <mxCell id="-p9duDZJ53LVQmhqnT-s-1" value="La validación de acciones de administradores, con respecto a roles autorizados, se realiza en la aplicación." style="shape=note;whiteSpace=wrap;html=1;backgroundOutline=1;darkOpacity=0.05;" vertex="1" parent="1">
          <mxGeometry x="-800" y="1120" width="600" height="120" as="geometry" />
        </mxCell>
        <mxCell id="-p9duDZJ53LVQmhqnT-s-2" value="" style="endArrow=none;dashed=1;html=1;dashPattern=1 3;strokeWidth=2;rounded=0;" edge="1" parent="1" source="6Q-LN-iuVSTYAUieE8iZ-1" target="-p9duDZJ53LVQmhqnT-s-1">
          <mxGeometry width="50" height="50" relative="1" as="geometry">
            <mxPoint x="10" y="1113" as="sourcePoint" />
            <mxPoint x="250" y="1126" as="targetPoint" />
          </mxGeometry>
        </mxCell>
        <mxCell id="JW-0Xlg-yH2x_bhj9Y8G-3" value="NOT NULL" style="rounded=0;whiteSpace=wrap;html=1;" vertex="1" parent="1">
          <mxGeometry x="240" y="1800" width="120" height="40" as="geometry" />
        </mxCell>
        <mxCell id="JW-0Xlg-yH2x_bhj9Y8G-4" value="NOT NULL" style="rounded=0;whiteSpace=wrap;html=1;" vertex="1" parent="1">
          <mxGeometry x="480" y="1800" width="120" height="40" as="geometry" />
        </mxCell>
        <mxCell id="JW-0Xlg-yH2x_bhj9Y8G-5" value="NOT NULL" style="rounded=0;whiteSpace=wrap;html=1;" vertex="1" parent="1">
          <mxGeometry x="360" y="1800" width="120" height="40" as="geometry" />
        </mxCell>
        <mxCell id="JW-0Xlg-yH2x_bhj9Y8G-6" value="NOT NULL" style="rounded=0;whiteSpace=wrap;html=1;" vertex="1" parent="1">
          <mxGeometry y="2320" width="120" height="40" as="geometry" />
        </mxCell>
        <mxCell id="FatJuat5SJvGY9fbhkNj-1" value="&lt;font style=&quot;font-size: 16px;&quot;&gt;&lt;font style=&quot;font-size: 18px;&quot;&gt;&lt;b style=&quot;&quot;&gt;Refugio de Vida Silvestre Bahía Junquillal: Modelo Relacional&lt;br&gt;&lt;/b&gt;&lt;/font&gt;&lt;br&gt;&lt;font style=&quot;font-size: 16px;&quot;&gt;AlphaTeam: Jason Murillo, Jose Pereira, Marco Piedra, Josué Retana, Ariel Solís&lt;br&gt;&lt;br&gt;Proyecto Integrador de Ingeniería de Software y Bases de Datos&lt;br&gt;&lt;br&gt;Escuela de Ciencias de la Computación e Informática, Universidad de Costa Rica&lt;br&gt;&lt;br&gt;Abril 2023&lt;/font&gt;&lt;/font&gt;" style="rounded=0;whiteSpace=wrap;html=1;" vertex="1" parent="1">
          <mxGeometry x="-800" y="40" width="600" height="200" as="geometry" />
        </mxCell>
        <mxCell id="FatJuat5SJvGY9fbhkNj-5" value="NOT NULL" style="rounded=0;whiteSpace=wrap;html=1;" vertex="1" parent="1">
          <mxGeometry x="120" y="3120" width="120" height="40" as="geometry" />
        </mxCell>
        <mxCell id="kwP9Qj8uJcXo710eS3rO-1" value="NOT NULL" style="rounded=0;whiteSpace=wrap;html=1;" vertex="1" parent="1">
          <mxGeometry x="240" y="2720" width="120" height="40" as="geometry" />
        </mxCell>
        <mxCell id="kwP9Qj8uJcXo710eS3rO-2" value="NOT NULL" style="rounded=0;whiteSpace=wrap;html=1;" vertex="1" parent="1">
          <mxGeometry x="360" y="2720" width="120" height="40" as="geometry" />
        </mxCell>
        <mxCell id="AiZ7lztk790qdd920lvw-1" value="NOT NULL" style="rounded=0;whiteSpace=wrap;html=1;" vertex="1" parent="1">
          <mxGeometry x="360" y="3120" width="120" height="40" as="geometry" />
        </mxCell>
        <mxCell id="AiZ7lztk790qdd920lvw-2" value="NOT NULL" style="rounded=0;whiteSpace=wrap;html=1;" vertex="1" parent="1">
          <mxGeometry x="480" y="3120" width="120" height="40" as="geometry" />
        </mxCell>
        <mxCell id="JS4ZLX4CrkoIOafjCiMV-1" value="Visitante" style="rounded=0;whiteSpace=wrap;html=1;" vertex="1" parent="1">
          <mxGeometry x="-120" y="2840" width="120" height="40" as="geometry" />
        </mxCell>
        <mxCell id="IONWcuWNa0sY0D16PIP5-1" value="&lt;u&gt;CodigoReservacion&lt;br&gt;&lt;/u&gt;" style="rounded=0;whiteSpace=wrap;html=1;" vertex="1" parent="1">
          <mxGeometry x="-120" y="2880" width="120" height="40" as="geometry" />
        </mxCell>
        <mxCell id="flTFh8SrxS9Fek_ifaz4-3" value="FK(Reservacion)" style="rounded=0;whiteSpace=wrap;html=1;" vertex="1" parent="1">
          <mxGeometry x="-120" y="2920" width="120" height="40" as="geometry" />
        </mxCell>
        <mxCell id="flTFh8SrxS9Fek_ifaz4-5" value="Procedencia es la provincia de Costa Rica para nacionales o el nombre de país para extranjeros.&lt;br&gt;&lt;br&gt;Categoría de pago es no exonerado, prepago, o exonerado." style="shape=note;whiteSpace=wrap;html=1;backgroundOutline=1;darkOpacity=0.05;" vertex="1" parent="1">
          <mxGeometry x="-800" y="2840" width="600" height="120" as="geometry" />
        </mxCell>
        <mxCell id="flTFh8SrxS9Fek_ifaz4-6" value="" style="endArrow=none;dashed=1;html=1;dashPattern=1 3;strokeWidth=2;rounded=0;" edge="1" parent="1" source="flTFh8SrxS9Fek_ifaz4-5" target="JS4ZLX4CrkoIOafjCiMV-1">
          <mxGeometry width="50" height="50" relative="1" as="geometry">
            <mxPoint x="-190" y="3083" as="sourcePoint" />
            <mxPoint x="-110" y="3075" as="targetPoint" />
          </mxGeometry>
        </mxCell>
        <mxCell id="5fkPlm6dZ7IUtqlIDJhd-1" value="Procedencia" style="rounded=0;whiteSpace=wrap;html=1;" vertex="1" parent="1">
          <mxGeometry x="360" y="2880" width="120" height="40" as="geometry" />
        </mxCell>
        <mxCell id="5fkPlm6dZ7IUtqlIDJhd-2" value="NOT NULL" style="rounded=0;whiteSpace=wrap;html=1;" vertex="1" parent="1">
          <mxGeometry x="360" y="2920" width="120" height="40" as="geometry" />
        </mxCell>
        <mxCell id="5fkPlm6dZ7IUtqlIDJhd-3" value="&lt;u&gt;TipoProcedencia&lt;/u&gt;" style="rounded=0;whiteSpace=wrap;html=1;" vertex="1" parent="1">
          <mxGeometry x="-120" y="2680" width="120" height="40" as="geometry" />
        </mxCell>
        <mxCell id="Lv3_aUWJXrmRh2oWQxtn-2" value="&lt;u&gt;TipoVisita&lt;/u&gt;" style="rounded=0;whiteSpace=wrap;html=1;" vertex="1" parent="1">
          <mxGeometry y="2680" width="120" height="40" as="geometry" />
        </mxCell>
        <mxCell id="Lv3_aUWJXrmRh2oWQxtn-3" value="&lt;u&gt;Estatus&lt;/u&gt;" style="rounded=0;whiteSpace=wrap;html=1;" vertex="1" parent="1">
          <mxGeometry x="240" y="2880" width="120" height="40" as="geometry" />
        </mxCell>
        <mxCell id="Lv3_aUWJXrmRh2oWQxtn-4" value="&lt;u&gt;TipoProcedencia&lt;/u&gt;" style="rounded=0;whiteSpace=wrap;html=1;" vertex="1" parent="1">
          <mxGeometry y="2880" width="120" height="40" as="geometry" />
        </mxCell>
        <mxCell id="Lv3_aUWJXrmRh2oWQxtn-6" value="&lt;u&gt;TipoVisita&lt;/u&gt;" style="rounded=0;whiteSpace=wrap;html=1;" vertex="1" parent="1">
          <mxGeometry x="120" y="2880" width="120" height="40" as="geometry" />
        </mxCell>
        <mxCell id="Lv3_aUWJXrmRh2oWQxtn-7" value="FechaFactura" style="rounded=0;whiteSpace=wrap;html=1;" vertex="1" parent="1">
          <mxGeometry x="240" y="3080" width="120" height="40" as="geometry" />
        </mxCell>
        <mxCell id="Lv3_aUWJXrmRh2oWQxtn-8" value="NOT NULL" style="rounded=0;whiteSpace=wrap;html=1;" vertex="1" parent="1">
          <mxGeometry x="240" y="3120" width="120" height="40" as="geometry" />
        </mxCell>
        <mxCell id="Lv3_aUWJXrmRh2oWQxtn-9" value="FK(TipoVisitante)" style="rounded=0;whiteSpace=wrap;html=1;" vertex="1" parent="1">
          <mxGeometry y="2920" width="360" height="40" as="geometry" />
        </mxCell>
        <mxCell id="MgHcKXorUuxBVunOpJ4C-1" value="CategoriaPago" style="rounded=0;whiteSpace=wrap;html=1;" vertex="1" parent="1">
          <mxGeometry x="480" y="2880" width="120" height="40" as="geometry" />
        </mxCell>
        <mxCell id="MgHcKXorUuxBVunOpJ4C-2" value="NOT NULL" style="rounded=0;whiteSpace=wrap;html=1;" vertex="1" parent="1">
          <mxGeometry x="480" y="2920" width="120" height="40" as="geometry" />
        </mxCell>
        <mxCell id="k8fw6D-JcM6nVDhfR3nL-1" value="Plazo" style="rounded=0;whiteSpace=wrap;html=1;" vertex="1" parent="1">
          <mxGeometry x="120" y="2280" width="120" height="40" as="geometry" />
        </mxCell>
        <mxCell id="k8fw6D-JcM6nVDhfR3nL-2" value="NOT NULL" style="rounded=0;whiteSpace=wrap;html=1;" vertex="1" parent="1">
          <mxGeometry x="120" y="2320" width="120" height="40" as="geometry" />
        </mxCell>
        <mxCell id="k8fw6D-JcM6nVDhfR3nL-3" value="HoraApertura" style="rounded=0;whiteSpace=wrap;html=1;" vertex="1" parent="1">
          <mxGeometry x="240" y="2280" width="120" height="40" as="geometry" />
        </mxCell>
        <mxCell id="k8fw6D-JcM6nVDhfR3nL-4" value="NOT NULL" style="rounded=0;whiteSpace=wrap;html=1;" vertex="1" parent="1">
          <mxGeometry x="240" y="2320" width="120" height="40" as="geometry" />
        </mxCell>
        <mxCell id="k8fw6D-JcM6nVDhfR3nL-5" value="HoraCierre" style="rounded=0;whiteSpace=wrap;html=1;" vertex="1" parent="1">
          <mxGeometry x="360" y="2280" width="120" height="40" as="geometry" />
        </mxCell>
        <mxCell id="k8fw6D-JcM6nVDhfR3nL-6" value="NOT NULL" style="rounded=0;whiteSpace=wrap;html=1;" vertex="1" parent="1">
          <mxGeometry x="360" y="2320" width="120" height="40" as="geometry" />
        </mxCell>
        <mxCell id="k8fw6D-JcM6nVDhfR3nL-8" value="TipoArea" style="rounded=0;whiteSpace=wrap;html=1;" vertex="1" parent="1">
          <mxGeometry x="120" y="1760" width="120" height="40" as="geometry" />
        </mxCell>
        <mxCell id="k8fw6D-JcM6nVDhfR3nL-9" value="FK(Area)" style="rounded=0;whiteSpace=wrap;html=1;" vertex="1" parent="1">
          <mxGeometry x="120" y="1800" width="120" height="40" as="geometry" />
        </mxCell>
        <mxCell id="k8fw6D-JcM6nVDhfR3nL-10" value="DiaInactivo" style="rounded=0;whiteSpace=wrap;html=1;" vertex="1" parent="1">
          <mxGeometry x="-120" y="2440" width="120" height="40" as="geometry" />
        </mxCell>
        <mxCell id="k8fw6D-JcM6nVDhfR3nL-11" value="&lt;u&gt;TipoArea&lt;/u&gt;" style="rounded=0;whiteSpace=wrap;html=1;" vertex="1" parent="1">
          <mxGeometry x="-120" y="2480" width="120" height="40" as="geometry" />
        </mxCell>
        <mxCell id="k8fw6D-JcM6nVDhfR3nL-12" value="FK(Area)" style="rounded=0;whiteSpace=wrap;html=1;" vertex="1" parent="1">
          <mxGeometry x="-120" y="2520" width="120" height="40" as="geometry" />
        </mxCell>
        <mxCell id="k8fw6D-JcM6nVDhfR3nL-13" value="&lt;u&gt;Fecha&lt;/u&gt;" style="rounded=0;whiteSpace=wrap;html=1;" vertex="1" parent="1">
          <mxGeometry y="2480" width="120" height="40" as="geometry" />
        </mxCell>
        <mxCell id="k8fw6D-JcM6nVDhfR3nL-14" value="EstadoActividad" style="rounded=0;whiteSpace=wrap;html=1;" vertex="1" parent="1">
          <mxGeometry x="600" y="1760" width="120" height="40" as="geometry" />
        </mxCell>
        <mxCell id="k8fw6D-JcM6nVDhfR3nL-15" value="NOT NULL" style="rounded=0;whiteSpace=wrap;html=1;" vertex="1" parent="1">
          <mxGeometry x="600" y="1800" width="120" height="40" as="geometry" />
        </mxCell>
        <mxCell id="fUEXYOMqxjrXp98iw52U-3" value="EstadoActividad" style="rounded=0;whiteSpace=wrap;html=1;" vertex="1" parent="1">
          <mxGeometry x="600" y="360" width="120" height="40" as="geometry" />
        </mxCell>
        <mxCell id="fUEXYOMqxjrXp98iw52U-4" value="NOT NULL" style="rounded=0;whiteSpace=wrap;html=1;" vertex="1" parent="1">
          <mxGeometry x="600" y="400" width="120" height="40" as="geometry" />
        </mxCell>
        <mxCell id="bDdszHhpRVpAAp_VHrwi-1" value="Cantidad Viistantes" style="rounded=0;whiteSpace=wrap;html=1;" vertex="1" parent="1">
          <mxGeometry x="600" y="2880" width="120" height="40" as="geometry" />
        </mxCell>
        <mxCell id="bDdszHhpRVpAAp_VHrwi-2" value="NOT NULL" style="rounded=0;whiteSpace=wrap;html=1;" vertex="1" parent="1">
          <mxGeometry x="600" y="2920" width="120" height="40" as="geometry" />
        </mxCell>
        <mxCell id="fBPgsGXNL8eX4vedo7Q8-1" value="NombrePais" style="rounded=0;whiteSpace=wrap;html=1;" vertex="1" parent="1">
          <mxGeometry x="720" y="1760" width="120" height="40" as="geometry" />
        </mxCell>
        <mxCell id="fBPgsGXNL8eX4vedo7Q8-3" value="NombreProvincia" style="rounded=0;whiteSpace=wrap;html=1;" vertex="1" parent="1">
          <mxGeometry x="840" y="1760" width="120" height="40" as="geometry" />
        </mxCell>
        <mxCell id="fBPgsGXNL8eX4vedo7Q8-5" value="Pais" style="rounded=0;whiteSpace=wrap;html=1;" vertex="1" parent="1">
          <mxGeometry x="-120" y="1920" width="120" height="40" as="geometry" />
        </mxCell>
        <mxCell id="fBPgsGXNL8eX4vedo7Q8-6" value="FK(Pais)" style="rounded=0;whiteSpace=wrap;html=1;" vertex="1" parent="1">
          <mxGeometry x="720" y="1800" width="120" height="40" as="geometry" />
        </mxCell>
        <mxCell id="fBPgsGXNL8eX4vedo7Q8-7" value="FK(Provincia)" style="rounded=0;whiteSpace=wrap;html=1;" vertex="1" parent="1">
          <mxGeometry x="840" y="1800" width="120" height="40" as="geometry" />
        </mxCell>
        <mxCell id="fBPgsGXNL8eX4vedo7Q8-8" value="&lt;u&gt;Nombre&lt;/u&gt;" style="rounded=0;whiteSpace=wrap;html=1;" vertex="1" parent="1">
          <mxGeometry x="-120" y="1960" width="120" height="40" as="geometry" />
        </mxCell>
        <mxCell id="fBPgsGXNL8eX4vedo7Q8-9" value="Provincia" style="rounded=0;whiteSpace=wrap;html=1;" vertex="1" parent="1">
          <mxGeometry x="-120" y="2080" width="120" height="40" as="geometry" />
        </mxCell>
        <mxCell id="fBPgsGXNL8eX4vedo7Q8-10" value="&lt;u&gt;Nombre&lt;/u&gt;" style="rounded=0;whiteSpace=wrap;html=1;" vertex="1" parent="1">
          <mxGeometry x="-120" y="2120" width="120" height="40" as="geometry" />
        </mxCell>
      </root>
    </mxGraphModel>
  </diagram>
</mxfile>
